<?xml version="1.0" encoding="UTF-8"?>
<!DOCTYPE svg PUBLIC "-//W3C//DTD SVG 1.1//EN" "http://www.w3.org/Graphics/SVG/1.1/DTD/svg11.dtd">
<!-- Creator: CorelDRAW 2020 (64-Bit) -->
<svg xmlns="http://www.w3.org/2000/svg" xml:space="preserve" width="8.9322mm" height="8.931mm" version="1.1" style="shape-rendering:geometricPrecision; text-rendering:geometricPrecision; image-rendering:optimizeQuality; fill-rule:evenodd; clip-rule:evenodd"
viewBox="0 0 36.99 36.99"
 xmlns:xlink="http://www.w3.org/1999/xlink"
 xmlns:xodm="http://www.corel.com/coreldraw/odm/2003">
 <defs>
  <style type="text/css">
   <![CDATA[
    .fil3 {fill:#FEFEFE}
    .fil2 {fill:#2D3134}
    .fil0 {fill:#353837}
    .fil1 {fill:white}
   ]]>
  </style>
 </defs>
 <g id="Слой_x0020_1">
  <metadata id="CorelCorpID_0Corel-Layer"/>
  <path class="fil0" d="M18.5 0c10.22,0 18.49,8.28 18.49,18.49 0,10.22 -8.28,18.49 -18.49,18.49 -10.22,0 -18.5,-8.28 -18.5,-18.49 0,-10.22 8.28,-18.49 18.5,-18.49l0 0z"/>
  <path class="fil1" d="M6.98 28.45c2.79,3.23 6.91,5.27 11.52,5.27 5.15,0 9.7,-2.56 12.45,-6.48l0.03 0c0.04,-0.07 0.08,-0.15 0.12,-0.22 0.62,-0.91 2.69,-6.25 2.73,-6.61 0,0 0.15,-2.08 -5.38,-3.09 0,0 -4.33,-0.12 -8.83,1.5 -1.07,0.38 -2.05,0.66 -2.95,0.82 0.15,1.69 0.75,3.16 3.23,3.76 -4.89,-0.65 -3.82,-5.32 -4.58,-8.25l-0.12 -0.54c0,0 4.61,-0.15 5.35,-2.46 0,0 -0.67,-1.53 -3.04,-1.16 -2.37,0.37 -2.31,1.58 -3.3,0.66 0,0 -1.59,-2.15 -3.99,-2.24 -1.17,-0.05 -3.57,0.28 -4.36,1.79 0,0 -0.51,0.21 -1.15,-0.42 -0.65,-0.63 -2.86,-1.05 -4.66,0.24 0,0 0.7,2.8 4.82,2.92 -2.67,4.88 -1.33,10.51 2.12,14.5l0 0z"/>
  <path class="fil2" d="M8.24 14.02c-0.09,-0.14 -0.68,-1.57 -1.86,-0.6 0,0 0.38,0.8 1.21,0.32l0.65 0.28z"/>
  <path class="fil2" d="M10.02 16.23c0,0 1.36,-0.34 1.18,0.41 -0.18,0.76 -1.04,0.54 -1.04,0.54l-0.06 0.75c0,0 0.98,0.51 1.4,0.05 0,0 -0.12,0.67 -1.46,0.58l-0.1 -0.01 0 0 -0.11 -0.01c-1.34,-0.01 -1.41,-0.69 -1.41,-0.69 0.38,0.49 1.4,0.05 1.4,0.05l-0.01 -0.75c0,0 -0.87,0.16 -1,-0.62 -0.12,-0.77 1.21,-0.32 1.21,-0.32l0 0z"/>
  <path class="fil2" d="M12.31 14.18c0.1,-0.13 0.8,-1.51 1.9,-0.46 0,0 -0.44,0.77 -1.22,0.23l-0.68 0.23z"/>
  <path class="fil3" d="M18.15 17.98c0.82,0 1.5,0.67 1.5,1.49 0,0.83 -0.67,1.5 -1.5,1.5 -0.82,0 -1.5,-0.67 -1.5,-1.5 0,-0.82 0.67,-1.49 1.5,-1.49l0 0z"/>
  <path class="fil3" d="M20.68 17c0.83,0 1.5,0.67 1.5,1.5 0,0.83 -0.67,1.5 -1.5,1.5 -0.82,0 -1.5,-0.67 -1.5,-1.5 0,-0.82 0.67,-1.5 1.5,-1.5l0 0z"/>
  <path class="fil3" d="M23.17 16.49c0.82,0 1.49,0.67 1.49,1.5 0,0.82 -0.67,1.49 -1.49,1.49 -0.83,0 -1.5,-0.67 -1.5,-1.49 0,-0.83 0.67,-1.5 1.5,-1.5l0 0z"/>
  <path class="fil3" d="M25.74 16.49c0.82,0 1.5,0.67 1.5,1.5 0,0.82 -0.67,1.49 -1.5,1.49 -0.83,0 -1.5,-0.67 -1.5,-1.49 0,-0.83 0.67,-1.5 1.5,-1.5l0 0z"/>
  <path class="fil3" d="M28.19 16.49c0.82,0 1.5,0.67 1.5,1.5 0,0.82 -0.67,1.49 -1.5,1.49 -0.82,0 -1.5,-0.67 -1.5,-1.49 0,-0.83 0.67,-1.5 1.5,-1.5l0 0z"/>
  <path class="fil3" d="M30.33 16.98c0.82,0 1.5,0.67 1.5,1.49 0,0.83 -0.67,1.5 -1.5,1.5 -0.83,0 -1.5,-0.67 -1.5,-1.5 0,-0.82 0.67,-1.49 1.5,-1.49l0 0z"/>
  <path class="fil3" d="M32.02 17.52c0.82,0 1.5,0.67 1.5,1.5 0,0.82 -0.67,1.49 -1.5,1.49 -0.83,0 -1.5,-0.67 -1.5,-1.49 0,-0.83 0.67,-1.5 1.5,-1.5l0 0z"/>
  <path class="fil3" d="M32.26 18.47c0.82,0 1.5,0.67 1.5,1.5 0,0.83 -0.67,1.5 -1.5,1.5 -0.82,0 -1.5,-0.67 -1.5,-1.5 0,-0.82 0.67,-1.5 1.5,-1.5l0 0z"/>
  <path class="fil3" d="M4.88 14.02c0.83,0 1.5,0.67 1.5,1.5 0,0.83 -0.67,1.5 -1.5,1.5 -0.82,0 -1.5,-0.67 -1.5,-1.5 0,-0.82 0.67,-1.5 1.5,-1.5l0 0z"/>
  <path class="fil3" d="M4.17 16.31c0.82,0 1.5,0.67 1.5,1.5 0,0.82 -0.67,1.49 -1.5,1.49 -0.83,0 -1.5,-0.67 -1.5,-1.49 0,-0.83 0.67,-1.5 1.5,-1.5l0 0z"/>
  <path class="fil3" d="M4.17 18.66c0.82,0 1.5,0.67 1.5,1.5 0,0.82 -0.67,1.49 -1.5,1.49 -0.83,0 -1.5,-0.67 -1.5,-1.49 0,-0.83 0.67,-1.5 1.5,-1.5l0 0z"/>
  <path class="fil3" d="M4.74 20.15c0.83,0 1.5,0.67 1.5,1.49 0,0.83 -0.67,1.5 -1.5,1.5 -0.82,0 -1.49,-0.67 -1.49,-1.5 0,-0.82 0.67,-1.49 1.49,-1.49l0 0z"/>
  <path class="fil3" d="M7.38 9.41c0.83,0 1.5,0.67 1.5,1.5 0,0.82 -0.67,1.49 -1.5,1.49 -0.82,0 -1.5,-0.67 -1.5,-1.49 0,-0.83 0.67,-1.5 1.5,-1.5l0 0z"/>
  <path class="fil3" d="M9.14 8.6c0.82,0 1.49,0.67 1.49,1.5 0,0.82 -0.67,1.5 -1.49,1.5 -0.83,0 -1.5,-0.67 -1.5,-1.5 0,-0.83 0.67,-1.5 1.5,-1.5l0 0z"/>
  <path class="fil3" d="M11.44 8.6c0.83,0 1.5,0.67 1.5,1.5 0,0.82 -0.67,1.5 -1.5,1.5 -0.82,0 -1.5,-0.67 -1.5,-1.5 0,-0.83 0.67,-1.5 1.5,-1.5l0 0z"/>
  <path class="fil3" d="M13.27 10.09c0.82,0 1.5,0.67 1.5,1.5 0,0.82 -0.67,1.49 -1.5,1.49 -0.83,0 -1.5,-0.67 -1.5,-1.49 0,-0.83 0.67,-1.5 1.5,-1.5l0 0z"/>
  <path class="fil3" d="M14.41 14.31c1.09,0 1.98,0.89 1.98,1.98 0,1.09 -0.89,1.98 -1.98,1.98 -1.09,0 -1.98,-0.89 -1.98,-1.98 0,-1.09 0.89,-1.98 1.98,-1.98l0 0z"/>
  <path class="fil3" d="M18.15 19.96c1.4,0 2.53,1.14 2.53,2.53 0,1.4 -1.14,2.54 -2.53,2.54 -1.4,0 -2.53,-1.14 -2.53,-2.54 0,-1.4 1.13,-2.53 2.53,-2.53l0 0z"/>
  <path class="fil3" d="M33.83 20.42c0,0.26 -0.14,0.91 -0.18,1.09 -1.4,7.09 -7.66,12.44 -15.15,12.44 -7.69,0 -14.07,-5.62 -15.25,-12.98l30.58 -0.55z"/>
  <path class="fil3" d="M15.85 16.86c1.4,0 2.53,1.13 2.53,2.53 0,1.4 -1.14,2.54 -2.53,2.54 -1.4,0 -2.54,-1.13 -2.54,-2.54 0,-1.4 1.13,-2.53 2.54,-2.53l0 0z"/>
  <path class="fil3" d="M32.41 18.47c0.82,0 1.5,0.67 1.5,1.5 0,0.83 -0.67,1.5 -1.5,1.5 -0.83,0 -1.5,-0.67 -1.5,-1.5 0,-0.82 0.67,-1.5 1.5,-1.5l0 0z"/>
 </g>
</svg>
